<?xml version="1.0" encoding="UTF-8"?>
<!DOCTYPE svg PUBLIC "-//W3C//DTD SVG 1.1//EN" "http://www.w3.org/Graphics/SVG/1.1/DTD/svg11.dtd">
<svg xmlns="http://www.w3.org/2000/svg" version="1.1" width="1000px" height="1000px" style="shape-rendering:geometricPrecision; text-rendering:geometricPrecision; image-rendering:optimizeQuality; fill-rule:evenodd; clip-rule:evenodd" xmlns:xlink="http://www.w3.org/1999/xlink">
<g><path style="opacity:0.98" fill="#6f8727" d="M 496.5,9.5 C 501.787,10.0194 506.954,11.0194 512,12.5C 527.661,10.4847 543.161,11.4847 558.5,15.5C 560.636,14.9848 562.803,14.6514 565,14.5C 570.204,15.5199 575.371,16.6866 580.5,18C 595.667,18.3887 610,22.0554 623.5,29C 635.282,32.6119 647.282,35.2786 659.5,37C 663.337,38.1727 666.671,40.1727 669.5,43C 673.219,43.3884 676.886,44.0551 680.5,45C 688.857,49.845 697.523,54.1783 706.5,58C 709.704,61.5172 713.704,63.5172 718.5,64C 730.656,70.5213 742.99,76.5213 755.5,82C 758.561,85.2625 762.228,87.5958 766.5,89C 775.167,95.3333 783.833,101.667 792.5,108C 797.041,112.95 802.374,116.95 808.5,120C 811.586,123.757 815.252,126.757 819.5,129C 821.657,130.981 823.324,133.314 824.5,136C 830.272,138.106 834.438,141.939 837,147.5C 839.846,149.257 842.512,151.257 845,153.5C 853.656,164.155 862.989,174.155 873,183.5C 874.333,186.167 875.667,188.833 877,191.5C 888.659,201.494 897.659,213.494 904,227.5C 909.094,231.364 912.428,236.364 914,242.5C 919.79,247.863 922.457,254.53 922,262.5C 925.613,265.623 928.946,268.956 932,272.5C 935.901,281.971 940.568,290.971 946,299.5C 950.532,314.57 956.198,329.237 963,343.5C 965.782,353.713 968.615,363.879 971.5,374C 971.355,374.772 971.022,375.439 970.5,376C 972.913,382.002 974.913,388.169 976.5,394.5C 976.167,395.833 975.833,397.167 975.5,398.5C 977.533,406.765 979.867,414.932 982.5,423C 982.595,426.446 982.262,429.946 981.5,433.5C 982.95,436.343 984.116,439.343 985,442.5C 985.812,449.747 985.646,456.914 984.5,464C 986.82,472.805 988.154,481.805 988.5,491C 988.519,493.999 987.852,496.832 986.5,499.5C 987.781,502.011 988.448,504.678 988.5,507.5C 987.275,511.841 987.275,516.175 988.5,520.5C 988.19,523.912 987.19,527.079 985.5,530C 985.945,533.994 986.278,537.994 986.5,542C 983.666,561.785 980.833,581.618 978,601.5C 976.726,606.714 974.393,611.381 971,615.5C 968.668,627.801 966.334,640.134 964,652.5C 957.12,666.601 950.453,680.934 944,695.5C 943.092,700.193 942.092,704.86 941,709.5C 934.573,722.26 927.906,734.926 921,747.5C 916.301,751.874 912.301,756.874 909,762.5C 908.649,766.556 907.315,770.223 905,773.5C 895.541,781.127 888.541,790.46 884,801.5C 879.333,806.167 874.667,810.833 870,815.5C 868.861,819.112 867.194,822.446 865,825.5C 858.982,832.183 852.315,838.183 845,843.5C 842.833,849.667 838.667,853.833 832.5,856C 830.833,860.333 827.833,863.333 823.5,865C 820.031,870.401 815.365,874.401 809.5,877C 808.547,878.955 807.213,880.622 805.5,882C 799.379,884.969 794.045,888.969 789.5,894C 786.417,895.139 783.417,896.472 780.5,898C 775.844,905.334 769.177,909.667 760.5,911C 755.211,914.62 750.211,918.62 745.5,923C 738.92,923.791 733.253,926.457 728.5,931C 723.914,931.388 720.248,933.388 717.5,937C 714.134,939.184 710.467,940.517 706.5,941C 705.5,942 704.5,943 703.5,944C 694.204,949.148 684.538,953.481 674.5,957C 665.428,960.357 656.094,962.69 646.5,964C 641.627,966.932 636.294,968.598 630.5,969C 628.112,970.861 625.446,972.194 622.5,973C 616.109,973.087 609.943,974.254 604,976.5C 601.192,975.614 598.359,975.447 595.5,976C 586.574,978.276 577.907,981.11 569.5,984.5C 568.228,984.43 567.062,984.097 566,983.5C 559.713,984.146 553.546,985.479 547.5,987.5C 536.193,987.719 524.86,987.719 513.5,987.5C 510.466,988.008 507.466,988.675 504.5,989.5C 497.5,988.833 490.5,988.167 483.5,987.5C 477.827,990.165 472.161,990.165 466.5,987.5C 460.849,988.005 455.349,987.005 450,984.5C 448.538,984.994 447.038,985.327 445.5,985.5C 440.186,984.822 434.852,984.322 429.5,984C 420.414,982.494 411.414,980.661 402.5,978.5C 396.592,979.085 390.926,977.918 385.5,975C 379.537,973.791 373.537,972.791 367.5,972C 364.554,971.194 361.888,969.861 359.5,968C 353.071,967.982 347.404,965.982 342.5,962C 339.424,961.654 336.424,960.988 333.5,960C 331.167,958.333 328.833,956.667 326.5,955C 316.892,952.024 307.225,949.357 297.5,947C 290.92,943.671 284.253,940.337 277.5,937C 274.366,932.499 270.033,930.166 264.5,930C 260.816,926.543 256.483,924.21 251.5,923C 248.5,920.667 245.5,918.333 242.5,916C 235.492,914.162 229.825,910.328 225.5,904.5C 218.933,902.441 213.6,898.607 209.5,893C 206.167,891.333 202.833,889.667 199.5,888C 192.728,882.14 186.395,875.806 180.5,869C 176.261,867.098 172.261,864.765 168.5,862C 163.37,856.504 157.87,851.337 152,846.5C 150.392,843.228 148.392,840.228 146,837.5C 140.621,833.788 136.287,829.121 133,823.5C 127.832,819.343 123.832,814.343 121,808.5C 117.3,804.465 113.3,800.798 109,797.5C 104.905,791.743 101.238,785.743 98,779.5C 91.3569,773.013 86.5235,765.347 83.5,756.5C 80.4396,753.393 77.6063,750.059 75,746.5C 71.4262,739.683 68.0928,732.683 65,725.5C 60.7895,721.411 58.4562,716.411 58,710.5C 54.0357,705.945 52.0357,700.611 52,694.5C 45.3074,687.113 41.3074,678.446 40,668.5C 38.4138,666.33 37.0804,663.996 36,661.5C 34.2105,652.886 31.5439,644.553 28,636.5C 26.5236,622.943 23.1903,609.943 18,597.5C 17.5377,592.93 16.7044,588.43 15.5,584C 15.7065,582.634 16.0398,581.301 16.5,580C 14.9794,573.933 13.9794,567.767 13.5,561.5C 13.6799,560.446 14.0133,559.446 14.5,558.5C 11.2654,551.265 10.2654,543.765 11.5,536C 10.754,532.849 10.0873,529.683 9.5,526.5C 10.0873,523.317 10.754,520.151 11.5,517C 10.1712,509.713 9.17124,502.38 8.5,495C 9.38847,488.22 9.38847,481.553 8.5,475C 9.76039,468.899 10.5937,462.732 11,456.5C 11.7246,454.051 12.7246,451.717 14,449.5C 14.117,444.201 14.9503,439.034 16.5,434C 14.3801,428.267 14.2134,422.433 16,416.5C 19.8598,399.931 24.6931,383.764 30.5,368C 29.438,364.211 29.2713,360.377 30,356.5C 34.5838,345.752 38.5838,334.752 42,323.5C 44.112,319.722 46.612,316.222 49.5,313C 50.0419,301.829 53.8753,291.663 61,282.5C 61.692,279.064 62.692,275.73 64,272.5C 68.7726,265.956 72.7726,258.956 76,251.5C 80.7917,247.585 83.7917,242.585 85,236.5C 89.4186,229.328 94.0852,222.328 99,215.5C 101.667,213.5 104.333,211.5 107,209.5C 109.984,200.172 115.651,192.839 124,187.5C 126.583,184.003 128.916,180.336 131,176.5C 137.467,168.437 144.3,160.604 151.5,153C 155.204,150.148 159.204,147.815 163.5,146C 165.751,142.075 168.417,138.408 171.5,135C 173.275,133.561 175.275,132.561 177.5,132C 182.259,125.239 188.259,119.906 195.5,116C 199.2,111.965 203.2,108.298 207.5,105C 228.125,93.5819 248.125,81.2486 267.5,68C 274.5,65 281.5,62 288.5,59C 298.217,52.4797 308.884,48.1463 320.5,46C 327.414,42.4738 334.414,39.1404 341.5,36C 355.612,33.6869 369.278,29.6869 382.5,24C 385.5,23.6667 388.5,23.3333 391.5,23C 394.948,21.0728 398.615,19.7394 402.5,19C 409.596,18.4629 416.762,18.6295 424,19.5C 434.116,17.0985 444.116,14.4318 454,11.5C 455.062,12.0968 456.228,12.4302 457.5,12.5C 463.801,10.6919 470.134,10.0252 476.5,10.5C 483.448,13.3547 490.114,13.0214 496.5,9.5 Z"/></g>
<g><path style="opacity:1" fill="#cbe67b" d="M 898.5,289.5 C 859.098,265.064 816.098,253.564 769.5,255C 743.966,260.213 724.132,273.713 710,295.5C 699.814,313.208 691.814,331.875 686,351.5C 669.328,411.191 655.328,471.524 644,532.5C 635.423,571.568 622.089,608.901 604,644.5C 575.208,693.946 533.708,728.112 479.5,747C 473.461,748.51 467.461,750.01 461.5,751.5C 443.944,754.125 426.277,755.125 408.5,754.5C 359.44,754.646 315.44,740.146 276.5,711C 251.555,687.955 232.388,660.788 219,629.5C 205.085,600.255 195.918,569.588 191.5,537.5C 190.614,519.183 190.281,500.85 190.5,482.5C 190.855,469.763 192.022,457.096 194,444.5C 199.354,413.707 205.354,383.041 212,352.5C 214.865,343.57 217.532,334.57 220,325.5C 227.678,306.49 235.011,287.157 242,267.5C 254.82,224.636 239.653,197.469 196.5,186C 189.897,184.726 183.23,184.226 176.5,184.5C 180.707,179.924 184.041,174.757 186.5,169C 189.833,167.333 193.167,165.667 196.5,164C 198.598,161.146 200.931,158.479 203.5,156C 206.661,154.587 209.661,152.92 212.5,151C 226.879,138.953 241.545,127.286 256.5,116C 270.083,108.709 283.75,101.709 297.5,95C 301.883,90.5936 307.216,88.2603 313.5,88C 319.997,84.5859 326.33,80.9192 332.5,77C 338.687,75.0507 345.02,73.7174 351.5,73C 356.12,69.0354 361.453,67.0354 367.5,67C 369.001,65.7485 370.668,64.7485 372.5,64C 379.716,62.1798 387.049,60.8464 394.5,60C 399.577,57.9052 404.91,56.9052 410.5,57C 416.5,54.6667 422.5,52.3333 428.5,50C 443.182,50.9997 457.848,50.6663 472.5,49C 477.596,48.1548 482.596,46.9881 487.5,45.5C 494.699,47.8226 502.032,48.156 509.5,46.5C 517.29,47.5036 524.957,48.6703 532.5,50C 540.167,50.3333 547.833,50.6667 555.5,51C 556.833,51.6667 558.167,52.3333 559.5,53C 565.833,53.3333 572.167,53.6667 578.5,54C 579.833,54.6667 581.167,55.3333 582.5,56C 593.288,57.5122 603.954,59.1788 614.5,61C 619.011,62.9245 623.677,64.2579 628.5,65C 635.348,68.59 642.348,71.9233 649.5,75C 653.211,75.1747 656.878,75.6747 660.5,76.5C 664.343,79.5134 668.676,81.3467 673.5,82C 681.109,85.3107 688.776,88.3107 696.5,91C 704.872,96.5191 713.539,101.519 722.5,106C 724.167,107.667 725.833,109.333 727.5,111C 743.435,120.605 759.101,130.605 774.5,141C 782.425,149.283 791.091,156.617 800.5,163C 803.305,167.808 807.305,171.142 812.5,173C 814.333,175.5 816.167,178 818,180.5C 821.572,182.069 824.572,184.402 827,187.5C 834.31,197.473 842.31,206.806 851,215.5C 857.461,227.298 865.461,237.965 875,247.5C 875.333,248.833 875.667,250.167 876,251.5C 880.182,257.199 883.848,263.199 887,269.5C 889.397,272.4 892.23,274.733 895.5,276.5C 896.883,280.75 897.883,285.083 898.5,289.5 Z"/></g>
<g><path style="opacity:1" fill="#fcfef2" d="M 176.5,184.5 C 183.23,184.226 189.897,184.726 196.5,186C 239.653,197.469 254.82,224.636 242,267.5C 235.011,287.157 227.678,306.49 220,325.5C 217.532,334.57 214.865,343.57 212,352.5C 205.354,383.041 199.354,413.707 194,444.5C 192.022,457.096 190.855,469.763 190.5,482.5C 189.339,498.328 189.172,514.328 190,530.5C 190.186,533.036 190.686,535.369 191.5,537.5C 195.918,569.588 205.085,600.255 219,629.5C 232.388,660.788 251.555,687.955 276.5,711C 315.44,740.146 359.44,754.646 408.5,754.5C 419.993,755.659 431.659,755.826 443.5,755C 449.793,754.608 455.793,753.441 461.5,751.5C 467.461,750.01 473.461,748.51 479.5,747C 533.708,728.112 575.208,693.946 604,644.5C 622.089,608.901 635.423,571.568 644,532.5C 655.328,471.524 669.328,411.191 686,351.5C 691.814,331.875 699.814,313.208 710,295.5C 724.132,273.713 743.966,260.213 769.5,255C 816.098,253.564 859.098,265.064 898.5,289.5C 899.748,291.649 901.248,293.649 903,295.5C 903.342,299.542 905.008,302.875 908,305.5C 907.823,311.982 910.157,317.315 915,321.5C 916.471,325.581 918.138,329.581 920,333.5C 924.931,351.357 930.431,369.023 936.5,386.5C 929.031,380.557 921.698,373.724 914.5,366C 900.913,355.751 887.913,344.751 875.5,333C 866.786,326.641 857.453,321.308 847.5,317C 830.803,311.242 813.803,306.576 796.5,303C 779.538,299.942 765.371,304.775 754,317.5C 750.268,322.906 746.935,328.573 744,334.5C 739.147,347.391 734.48,360.391 730,373.5C 714.082,432.937 700.415,492.937 689,553.5C 678.642,599.261 661.642,642.261 638,682.5C 602.773,735.049 555.273,771.882 495.5,793C 478.175,798.165 460.508,801.332 442.5,802.5C 423.825,802.517 405.159,802.184 386.5,801.5C 337.268,798.258 292.601,782.424 252.5,754C 226.518,733.363 205.685,708.53 190,679.5C 174.577,651.671 162.243,622.671 153,592.5C 139.948,539.308 137.948,485.642 147,431.5C 152.54,402.135 158.206,372.802 164,343.5C 167.394,330.318 171.394,317.318 176,304.5C 184.664,284.342 191.83,263.675 197.5,242.5C 197.449,240.9 197.116,239.4 196.5,238C 193.326,236.275 189.993,234.942 186.5,234C 175.549,232.65 164.549,232.15 153.5,232.5C 148.489,232.666 143.489,232.499 138.5,232C 136.934,231.392 135.6,230.558 134.5,229.5C 141.292,224.849 146.125,218.515 149,210.5C 152.7,206.465 156.7,202.798 161,199.5C 161.883,196.898 163.383,194.731 165.5,193C 169.636,190.619 173.302,187.786 176.5,184.5 Z"/></g>
<g><path style="opacity:1" fill="#cbe67c" d="M 133.5,230.5 C 134.347,231.966 135.68,232.8 137.5,233C 143.016,233.817 148.35,233.651 153.5,232.5C 164.549,232.15 175.549,232.65 186.5,234C 189.993,234.942 193.326,236.275 196.5,238C 197.116,239.4 197.449,240.9 197.5,242.5C 191.83,263.675 184.664,284.342 176,304.5C 171.394,317.318 167.394,330.318 164,343.5C 158.206,372.802 152.54,402.135 147,431.5C 137.948,485.642 139.948,539.308 153,592.5C 162.243,622.671 174.577,651.671 190,679.5C 205.685,708.53 226.518,733.363 252.5,754C 292.601,782.424 337.268,798.258 386.5,801.5C 397.798,802.966 409.298,803.632 421,803.5C 428.341,803.5 435.508,803.166 442.5,802.5C 460.508,801.332 478.175,798.165 495.5,793C 555.273,771.882 602.773,735.049 638,682.5C 661.642,642.261 678.642,599.261 689,553.5C 700.415,492.937 714.082,432.937 730,373.5C 734.48,360.391 739.147,347.391 744,334.5C 746.935,328.573 750.268,322.906 754,317.5C 765.371,304.775 779.538,299.942 796.5,303C 813.803,306.576 830.803,311.242 847.5,317C 857.453,321.308 866.786,326.641 875.5,333C 887.913,344.751 900.913,355.751 914.5,366C 921.698,373.724 929.031,380.557 936.5,386.5C 937.319,389.305 937.819,392.305 938,395.5C 939.087,399.766 940.754,403.766 943,407.5C 942.644,417.98 944.144,428.147 947.5,438C 946.987,440.642 946.654,443.309 946.5,446C 947.384,453.586 948.717,461.086 950.5,468.5C 948.869,478.947 949.203,489.28 951.5,499.5C 949.944,508.822 949.611,518.155 950.5,527.5C 947.482,537.159 946.482,546.992 947.5,557C 943.318,574.625 940.485,592.458 939,610.5C 936.996,613.475 935.996,616.808 936,620.5C 933,626.833 930,633.167 927,639.5C 927.178,644.925 925.845,649.925 923,654.5C 921.156,664.037 918.489,673.371 915,682.5C 907.407,689.688 902.407,698.354 900,708.5C 895.788,712.253 893.122,716.92 892,722.5C 889.957,724.208 888.29,726.208 887,728.5C 885.479,738.042 880.812,745.709 873,751.5C 870.924,756.651 868.59,761.651 866,766.5C 858.873,772.952 852.539,779.952 847,787.5C 844.807,791.938 841.473,795.272 837,797.5C 831.301,804.363 825.801,811.363 820.5,818.5C 818.833,819.333 817.167,820.167 815.5,821C 809.887,827.456 803.887,833.456 797.5,839C 792.645,840.52 788.978,843.52 786.5,848C 784.004,849.08 781.67,850.414 779.5,852C 773.019,857.423 766.686,863.089 760.5,869C 753.125,871.367 747.125,875.701 742.5,882C 737.391,884.889 732.057,887.222 726.5,889C 723.537,890.961 720.871,893.294 718.5,896C 713.72,897.556 709.387,899.889 705.5,903C 699.76,903.203 695.093,905.537 691.5,910C 686.388,909.725 682.055,911.392 678.5,915C 663.856,918.986 649.856,924.653 636.5,932C 631.407,931.885 626.74,933.218 622.5,936C 618.5,936.333 614.5,936.667 610.5,937C 607.021,939.789 603.021,941.122 598.5,941C 595.638,941.93 593.305,943.597 591.5,946C 583.984,946.666 576.484,946.499 569,945.5C 565.329,946.699 561.496,947.533 557.5,948C 542.359,949.498 527.193,950.998 512,952.5C 505.187,951.529 498.354,951.529 491.5,952.5C 477.566,950.935 463.566,950.102 449.5,950C 436.43,948.355 423.43,946.355 410.5,944C 404.808,941.603 398.808,940.27 392.5,940C 387.626,938.654 382.959,936.821 378.5,934.5C 374.541,933.673 370.541,933.173 366.5,933C 364.404,931.234 362.071,929.901 359.5,929C 352.36,927.054 345.027,925.72 337.5,925C 330.696,922.208 324.363,918.541 318.5,914C 310.588,911.377 303.255,907.711 296.5,903C 293.5,902.167 290.5,901.333 287.5,900.5C 285.334,898.507 283.001,896.673 280.5,895C 274.185,891.176 267.518,887.842 260.5,885C 256.013,880.253 250.679,876.753 244.5,874.5C 239.887,870.52 234.887,867.02 229.5,864C 222.65,856.564 214.65,850.564 205.5,846C 200.779,839.946 195.446,834.612 189.5,830C 186.87,826.368 183.87,823.035 180.5,820C 174.667,816.833 170.167,812.333 167,806.5C 160.346,800.012 153.846,793.346 147.5,786.5C 142.019,776.184 135.186,766.851 127,758.5C 124.26,751.09 119.926,744.757 114,739.5C 107.49,727.003 101.157,714.336 95,701.5C 94,699.833 92.6667,698.5 91,697.5C 90.0397,693.702 88.7064,690.035 87,686.5C 84.9565,684.792 83.2899,682.792 82,680.5C 81.3299,671.79 78.6632,663.79 74,656.5C 70.6318,646.026 67.6318,635.359 65,624.5C 62.6667,618.833 60.3333,613.167 58,607.5C 56.1787,588.949 53.012,570.616 48.5,552.5C 48.965,549.85 49.2983,547.184 49.5,544.5C 48.0711,536.574 47.2378,528.574 47,520.5C 46.0296,518.726 45.1963,516.893 44.5,515C 46.0387,500.873 47.3721,486.706 48.5,472.5C 47.3762,468.519 47.3762,464.519 48.5,460.5C 48.5839,457.428 47.9172,454.594 46.5,452C 48.1275,447.049 48.9609,441.882 49,436.5C 50.7506,434.51 51.7506,432.177 52,429.5C 54.9861,412.918 57.3195,396.251 59,379.5C 61.9113,376.01 64.578,372.344 67,368.5C 69.203,357.147 72.5363,346.147 77,335.5C 77.3333,332.167 77.6667,328.833 78,325.5C 85.6279,317.578 90.6279,308.244 93,297.5C 94.3333,296.167 95.6667,294.833 97,293.5C 101.488,283.19 106.488,273.19 112,263.5C 120.713,253.381 127.88,242.381 133.5,230.5 Z"/></g>
<g><path style="opacity:1" fill="#e7f4be" d="M 134.5,229.5 C 135.6,230.558 136.934,231.392 138.5,232C 143.489,232.499 148.489,232.666 153.5,232.5C 148.35,233.651 143.016,233.817 137.5,233C 135.68,232.8 134.347,231.966 133.5,230.5C 133.5,229.833 133.833,229.5 134.5,229.5 Z"/></g>
<g><path style="opacity:1" fill="#283405" d="M 288.5,295.5 C 286.184,289.653 285.85,283.653 287.5,277.5C 288.11,276.609 288.443,275.609 288.5,274.5C 291.98,270.67 295.98,267.67 300.5,265.5C 312.492,263.015 321.325,267.349 327,278.5C 327.87,298.293 318.37,307.127 298.5,305C 294.623,302.42 291.29,299.254 288.5,295.5 Z"/></g>
<g><path style="opacity:1" fill="#687a33" d="M 300.5,265.5 C 295.98,267.67 291.98,270.67 288.5,274.5C 290.794,269.203 294.794,266.203 300.5,265.5 Z"/></g>
<g><path style="opacity:1" fill="#829746" d="M 287.5,277.5 C 285.85,283.653 286.184,289.653 288.5,295.5C 287.503,295.53 286.836,295.03 286.5,294C 284.94,288.247 285.274,282.747 287.5,277.5 Z"/></g>
<g><path style="opacity:1" fill="#697b34" d="M 362.5,304.5 C 359.098,304.342 355.764,304.676 352.5,305.5C 352.611,304.883 352.944,304.383 353.5,304C 356.696,303.195 359.696,303.362 362.5,304.5 Z"/></g>
<g><path style="opacity:1" fill="#889d4a" d="M 543.5,304.5 C 539.131,304.467 534.798,304.8 530.5,305.5C 532.634,303.967 535.134,303.3 538,303.5C 540.033,303.506 541.866,303.839 543.5,304.5 Z"/></g>
<g><path style="opacity:1" fill="#283405" d="M 362.5,304.5 C 367.143,306.979 370.643,310.645 373,315.5C 388.776,334.203 408.61,340.703 432.5,335C 441.519,332.994 450.186,329.994 458.5,326C 465.504,323.934 471.004,325.767 475,331.5C 476.588,337.645 475.088,342.811 470.5,347C 449.2,358.393 426.533,362.727 402.5,360C 378.983,354.665 360.817,341.832 348,321.5C 346.595,317.928 346.262,314.261 347,310.5C 348.076,307.921 349.909,306.254 352.5,305.5C 355.764,304.676 359.098,304.342 362.5,304.5 Z"/></g>
<g><path style="opacity:1" fill="#283405" d="M 543.5,304.5 C 545.942,306.226 548.609,307.726 551.5,309C 553.808,311.128 555.474,313.628 556.5,316.5C 557.162,320.466 557.495,324.466 557.5,328.5C 552.1,343.031 542.1,347.531 527.5,342C 518.383,334.59 516.05,325.423 520.5,314.5C 523.167,312.5 525.5,310.167 527.5,307.5C 527.973,306.094 528.973,305.427 530.5,305.5C 534.798,304.8 539.131,304.467 543.5,304.5 Z"/></g>
<g><path style="opacity:1" fill="#60722e" d="M 527.5,307.5 C 525.5,310.167 523.167,312.5 520.5,314.5C 521.833,311.167 524.167,308.833 527.5,307.5 Z"/></g>
<g><path style="opacity:1" fill="#6a7c34" d="M 556.5,316.5 C 557.926,318.679 558.592,321.179 558.5,324C 558.492,325.707 558.158,327.207 557.5,328.5C 557.495,324.466 557.162,320.466 556.5,316.5 Z"/></g>
<g><path style="opacity:1" fill="#e0f0ad" d="M 190.5,482.5 C 190.281,500.85 190.614,519.183 191.5,537.5C 190.686,535.369 190.186,533.036 190,530.5C 189.172,514.328 189.339,498.328 190.5,482.5 Z"/></g>
<g><path style="opacity:1" fill="#eaf6c7" d="M 461.5,751.5 C 455.793,753.441 449.793,754.608 443.5,755C 431.659,755.826 419.993,755.659 408.5,754.5C 426.277,755.125 443.944,754.125 461.5,751.5 Z"/></g>
<g><path style="opacity:1" fill="#f0f8d5" d="M 386.5,801.5 C 405.159,802.184 423.825,802.517 442.5,802.5C 435.508,803.166 428.341,803.5 421,803.5C 409.298,803.632 397.798,802.966 386.5,801.5 Z"/></g>
</svg>
